{"title":"Transcendence 2014 720p HDRIP X264 AC3 TiTAN","uid":10468316,"size":2085213180,"categoryP":"video","categoryS":"hd___movies","magnet":"?xt=urn:btih:458bc2ffaac4b223964e71fa208014f48679dc05&amp;dn=Transcendence+2014+720p+HDRIP+X264+AC3+TiTAN&amp;tr=udp%3A%2F%2Ftracker.openbittorrent.com%3A80&amp;tr=udp%3A%2F%2Fopen.demonii.com%3A1337&amp;tr=udp%3A%2F%2Ftracker.coppersurfer.tk%3A6969&amp;tr=udp%3A%2F%2Fexodus.desync.com%3A6969","seeders":4,"leechers":1,"uploader":".BONE.","files":3,"time":1404229154,"description":" &lt;a href=&quot;http://www.imdb.com/title/tt2209764/&quot; rel=&quot;nofollow&quot; target=&quot;_NEW&quot;&gt;http://www.imdb.com/title/tt2209764/&lt;/a&gt;\n\nSource: Itunes\n\nGeneral\n\nFormat : Matroska\nFormat version : Version 2\nFile size : 1.94 GiB\nDuration : 1h 59mn\nOverall bit rate mode : Variable\nOverall bit rate : 2 332 Kbps\nEncoded date : UTC 2014-07-01 07:15:56\n\nVideo\nID : 1\nFormat : AVC\nFormat/Info : Advanced Video Codec\nFormat profile : &lt;a class=&quot;__cf_email__&quot; href=&quot;/cdn-cgi/l/email-protection&quot; data-cfemail=&quot;470f2e202f070b736976&quot;&gt;[email&amp;#160;protected]&lt;/a&gt;&lt;script cf-hash='f9e31' type=&quot;text/javascript&quot;&gt;\n/* &lt;![CDATA[ */!function(){try{var t=&quot;currentScript&quot;in document?document.currentScript:function(){for(var t=document.getElementsByTagName(&quot;script&quot;),e=t.length;e--;)if(t[e].getAttribute(&quot;cf-hash&quot;))return t[e]}();if(t&amp;&amp;t.previousSibling){var e,r,n,i,c=t.previousSibling,a=c.getAttribute(&quot;data-cfemail&quot;);if(a){for(e=&quot;&quot;,r=parseInt(a.substr(0,2),16),n=2;a.length-n;n+=2)i=parseInt(a.substr(n,2),16)^r,e+=String.fromCharCode(i);e=document.createTextNode(e),c.parentNode.replaceChild(e,c)}}}catch(u){}}();/* ]]&gt; */&lt;/script&gt;\nFormat settings, CABAC : Yes\nFormat settings, ReFrames : 3 frames\nCodec ID : V_MPEG4/ISO/AVC\nDuration : 1h 59mn\nBit rate mode : Variable\nBit rate : 1 837 Kbps\nMaximum bit rate : 40.0 Mbps\nWidth : 1 280 pixels\nHeight : 544 pixels\nDisplay aspect ratio : 2.35:1\nFrame rate mode : Constant\nFrame rate : 23.976 fps\nColor space : YUV\nChroma subsampling : 4:2:0\nBit depth : 8 bits\nScan type : Progressive\nBits/(Pixel*Frame) : 0.110\nStream size : 1.53 GiB (79%)\nDefault : Yes\nForced : No\nColor primaries : BT.709\nTransfer characteristics : BT.709\nMatrix coefficients : BT.709\n\nAudio\nID : 2\nFormat : AC-3\nFormat/Info : Audio Coding 3\nMode extension : CM (complete main)\nFormat settings, Endianness : Big\nCodec ID : A_AC3\nDuration : 1h 59mn\nBit rate mode : Constant\nBit rate : 448 Kbps\nChannel(s) : 6 channels\nChannel positions : Front: L C R, Side: L R, LFE\nSampling rate : 48.0 KHz\nBit depth : 16 bits\nCompression\nmode : Lossy\nStream size : 382 MiB (19%)\nLanguage : English\nDefault : Yes\nForced : No\n &lt;a href=&quot;\nhttp://imgchicken.com/images/29698602972420924185.png&quot; rel=&quot;nofollow&quot; target=&quot;_NEW&quot;&gt;\nhttp://imgchicken.com/images/29698602972420924185.png&lt;/a&gt; &lt;a href=&quot;\nhttp://imgchicken.com/images/96732567378235743662.png&quot; rel=&quot;nofollow&quot; target=&quot;_NEW&quot;&gt;\nhttp://imgchicken.com/images/96732567378235743662.png&lt;/a&gt; &lt;a href=&quot;\nhttp://imgchicken.com/images/57994600364696864797.png&quot; rel=&quot;nofollow&quot; target=&quot;_NEW&quot;&gt;\nhttp://imgchicken.com/images/57994600364696864797.png&lt;/a&gt; &lt;a href=&quot;\nhttp://imgchicken.com/images/54542911563476512819.jpg&quot; rel=&quot;nofollow&quot; target=&quot;_NEW&quot;&gt;\nhttp://imgchicken.com/images/54542911563476512819.jpg&lt;/a&gt; &lt;a href=&quot;\nhttp://imgchicken.com/images/56306576775803853557.png&quot; rel=&quot;nofollow&quot; target=&quot;_NEW&quot;&gt;\nhttp://imgchicken.com/images/56306576775803853557.png&lt;/a&gt;","torrent":{"xt":"urn:btih:458bc2ffaac4b223964e71fa208014f48679dc05","amp;dn":"Transcendence+2014+720p+HDRIP+X264+AC3+TiTAN","amp;tr":["udp%3A%2F%2Ftracker.openbittorrent.com%3A80","udp%3A%2F%2Fopen.demonii.com%3A1337","udp%3A%2F%2Ftracker.coppersurfer.tk%3A6969","udp%3A%2F%2Fexodus.desync.com%3A6969"],"infoHash":"458bc2ffaac4b223964e71fa208014f48679dc05","infoHashBuffer":{"type":"Buffer","data":[69,139,194,255,170,196,178,35,150,78,113,250,32,128,20,244,134,121,220,5]},"announce":[],"urlList":[]}}